<?xml version="1.0" encoding="UTF-8"?>
<svg id="Layer_1" data-name="Layer 1" xmlns="http://www.w3.org/2000/svg" viewBox="0 0 247.3511 49">
  <path d="M77.3901,13.6746c3.159,0,5.899.7252,8.188,2.2069,2.261,1.4204,3.996,3.3118,5.195,5.6664,1.194,2.345,1.791,4.8678,1.791,7.5585,0,.4753-.022.9508-.064,1.4259v2.223h-24.465c.182,1.9433.671,3.5574,1.445,4.8628.921,1.4376,2.048,2.4971,3.376,3.2008,1.392.7149,2.858,1.0707,4.406,1.0708,2.252-.0001,3.922-.4722,5.086-1.336,1.204-.8932,2.132-2.1454,2.773-3.7879l.163-.4175h6.569l-.2.8125c-.754,3.0607-2.332,5.6604-4.722,7.785l-.005.0046c-2.441,2.1251-5.687,3.1544-9.664,3.1545-3.075,0-5.825-.7044-8.23-2.1297l-.012-.0076c-2.353-1.4652-4.214-3.4848-5.581-6.043-1.373-2.614-2.051-5.635-2.051-9.0349,0-3.3964.653-6.3907,1.984-8.9629,1.326-2.5243,3.139-4.5073,5.436-5.9236l.224-.1351c2.407-1.4693,5.201-2.1935,8.358-2.1935ZM77.2621,19.7627c-2.317,0-4.336.6946-6.083,2.0834-1.509,1.2292-2.514,2.9074-2.995,5.0763h17.719c-.272-2.1433-1.138-3.8003-2.571-5.0239l-.013-.0115c-1.56-1.4038-3.56-2.1243-6.057-2.1243Z" fill-rule="evenodd"/>
  <path d="M144.6481,13.6746c4.605,0,8.095,1.2178,10.304,3.7954,2.206,2.4821,3.277,5.7689,3.277,9.7895v20.0811h-5.838l-.387-4.2478c-.887,1.2071-1.98,2.2842-3.277,3.2303-1.685,1.2172-4.053,1.7817-7.009,1.7818-2.578,0-4.773-.4587-6.551-1.416-1.75-.9424-3.079-2.1934-3.954-3.7603l-.005-.0068c-.86-1.585-1.289-3.3067-1.289-5.1533,0-3.4074,1.246-6.0622,3.777-7.8581l.239-.1661c2.49-1.6887,5.719-2.5035,9.63-2.5035h8.005c-.003-2.6626-.616-4.539-1.723-5.7487-1.099-1.2015-2.79-1.8568-5.199-1.8568-1.94,0-3.53.4232-4.804,1.233-1.18.7768-1.968,2.008-2.323,3.7809l-.105.527h-6.738l.072-.7206c.224-2.2329.964-4.1791,2.236-5.8149l.004-.0042.004-.0046c1.303-1.6177,2.963-2.8492,4.967-3.6956,2.002-.8455,4.234-1.2617,6.687-1.2617ZM144.0111,32.7553c-2.851,0-4.692.49-5.697,1.316-.983.8413-1.48,1.9458-1.48,3.3784,0,1.4942.489,2.5942,1.423,3.3849.941.7962,2.379,1.246,4.417,1.246,1.93,0,3.512-.461,4.783-1.347l.007-.0054c1.341-.9071,2.344-2.1064,3.017-3.6099l.003-.0065.003-.0062c.632-1.3353.989-2.7835,1.067-4.3503h-7.543Z" fill-rule="evenodd"/>
  <path d="M173.3751,17.4498c.751-.8278,1.672-1.5789,2.754-2.2552l.006-.0038c1.857-1.1329,4.017-1.688,6.454-1.6881,2.823.0001,5.344.6633,7.538,2.0072,2.2,1.3472,3.915,3.3172,5.151,5.8789,1.242,2.5733,1.848,5.6702,1.848,9.2655,0,3.637-.605,6.7745-1.846,9.3889-1.238,2.5652-2.978,4.5393-5.222,5.8857-2.192,1.3408-4.688,2.0041-7.469,2.0041-2.508,0-4.685-.5065-6.503-1.5522l-.017-.0099c-1.345-.828-2.432-1.8843-3.254-3.1637l-.469,3.9616h-5.631V0h6.66v17.4497ZM181.8891,19.9093c-2.498,0-4.527.8829-6.138,2.652l-.005.0054c-1.582,1.6974-2.435,4.3703-2.435,8.1512,0,3.7768.852,6.4747,2.436,8.217,1.61,1.7268,3.64,2.5919,6.142,2.5919s4.508-.8655,6.073-2.5881c1.587-1.7421,2.441-4.4415,2.441-8.2208s-.854-6.4538-2.435-8.1512l-.005-.0058-.005-.0057c-1.568-1.7635-3.572-2.6459-6.069-2.6459Z" fill-rule="evenodd"/>
  <path d="M231.9681,13.9435c3.155.0001,5.892.7238,8.18,2.202,2.264,1.4209,4.002,3.3141,5.203,5.6714,1.194,2.3449,1.79,4.8677,1.79,7.5584,0,.4754-.021.9508-.063,1.4259v2.223h-24.465c.182,1.9435.671,3.5578,1.445,4.8632.921,1.4375,2.047,2.4968,3.376,3.2004,1.392.7149,2.858,1.0708,4.406,1.0708,2.252,0,3.922-.4722,5.086-1.336,1.203-.8932,2.132-2.1454,2.773-3.7878l.163-.4175h6.569l-.2.8124c-.754,3.0608-2.333,5.6604-4.722,7.785l-.005.0046c-2.442,2.1252-5.687,3.1544-9.664,3.1545-3.075,0-5.825-.7043-8.23-2.1297l-.012-.0076c-2.353-1.4652-4.214-3.4848-5.581-6.043-1.373-2.614-2.051-5.6349-2.051-9.0348,0-3.3964.653-6.3907,1.983-8.9629,1.369-2.6057,3.257-4.6342,5.661-6.0587,2.407-1.4693,5.201-2.1936,8.358-2.1936ZM231.8401,20.0317c-2.317,0-4.337.6945-6.084,2.0833-1.509,1.2293-2.514,2.9075-2.995,5.0764h17.719c-.271-2.1433-1.137-3.8003-2.57-5.0239l-.007-.0058-.006-.0057c-1.56-1.4038-3.561-2.1243-6.057-2.1243Z" fill-rule="evenodd"/>
  <path d="M28.1411,7.4066h-10.124v33.9733h10.124v5.9607H1.232v-5.9607h10.1246V7.4066H1.232V1.4462h26.9091v5.9603Z"/>
  <path d="M45.4421,14.4388h12.608v5.8968h-12.608v16.6683c0,1.7087.39,2.727.987,3.2647.667.5621,1.909.9203,3.897.9204h7.724v6.1516h-9.315c-2.99,0-5.429-.7268-7.237-2.2571-1.878-1.5894-2.716-4.3627-2.716-8.0796v-16.6683h-8.023v-5.8968h5.431c.978,0,1.665-.2385,2.139-.6406.474-.4016.818-1.0365.971-1.9919l.002-.0138.99-5.4422h5.15v8.0885Z"/>
  <path d="M126.2881,20.6544h-7.214c-2.427,0-4.219.8059-5.475,2.3665l-.005.0061c-1.285,1.5572-1.952,3.5866-1.952,6.1433v12.2735h9.934v5.8968h-24.681v-5.8968h8.087v-20.1714c0-.4359-.105-.6417-.199-.7401-.09-.0933-.272-.1967-.673-.1967h-6.387v-5.8968h8.361c1.524,0,2.818.4191,3.813,1.3149.724.652,1.168,1.5053,1.367,2.5181.552-1.0801,1.274-1.9936,2.173-2.7293l.004-.0031c1.597-1.2681,3.758-1.8648,6.397-1.8648h6.45v6.9798Z"/>
  <path d="M209.7791,47.3766h-6.66V.2079h6.66v47.1687Z"/>
</svg>